<?xml version="1.0" standalone="no"?>
<!DOCTYPE svg PUBLIC "-//W3C//DTD SVG 20010904//EN"
 "http://www.w3.org/TR/2001/REC-SVG-20010904/DTD/svg10.dtd">
<svg version="1.0" xmlns="http://www.w3.org/2000/svg"
 width="2123.000000pt" height="644.000000pt" viewBox="0 0 2123.000000 644.000000"
 preserveAspectRatio="xMidYMid meet">

<g transform="translate(0.000000,644.000000) scale(0.100000,-0.100000)"
fill="#000000" stroke="none">
<path d="M2742 6317 c-112 -67 -244 -151 -294 -187 -195 -138 -334 -299 -379
-438 -90 -275 117 -1295 296 -1462 11 -10 32 -22 48 -25 23 -6 33 -2 63 30 49
52 134 234 244 520 110 287 168 410 209 449 28 27 32 28 53 14 41 -27 94 -134
208 -421 223 -560 293 -658 393 -548 140 155 295 787 299 1222 1 109 -2 133
-24 196 -36 102 -103 196 -216 304 -137 132 -307 247 -642 437 l-55 31 -203
-122z"/>
<path d="M915 4903 c-159 -35 -348 -137 -542 -294 -167 -133 -373 -323 -368
-339 2 -8 20 -89 40 -180 87 -396 163 -602 279 -756 88 -118 183 -173 381
-223 551 -138 1228 -147 1261 -17 15 63 -107 191 -439 460 -230 187 -353 302
-363 341 -18 72 64 91 536 120 366 23 493 42 565 83 77 45 28 142 -141 278
-251 203 -715 452 -969 520 -47 13 -195 17 -240 7z"/>
<path d="M4834 4900 c-223 -40 -792 -340 -1055 -558 -116 -96 -158 -153 -159
-214 0 -33 4 -38 43 -56 77 -37 213 -54 562 -72 436 -22 550 -46 530 -111 -14
-42 -133 -156 -370 -353 -339 -283 -431 -382 -423 -453 4 -36 52 -68 126 -85
87 -20 472 -17 647 5 275 35 562 103 659 155 181 98 319 339 416 722 33 128
90 393 90 415 0 27 -370 343 -520 442 -201 134 -390 190 -546 163z"/>
<path d="M1858 2946 c-274 -112 -856 -652 -974 -901 -87 -183 -67 -428 63
-774 40 -109 180 -432 192 -444 4 -4 68 -14 142 -22 612 -65 895 -22 1074 160
100 103 270 400 393 690 185 436 213 694 72 670 -60 -10 -227 -99 -425 -226
-382 -246 -505 -313 -548 -296 -46 18 -33 121 67 517 118 466 133 601 72 642
-20 14 -71 8 -128 -16z"/>
<path d="M3573 2475 c-17 -7 -40 -26 -50 -41 -17 -27 -18 -83 -21 -1140 -3
-1202 -4 -1167 51 -1208 28 -21 37 -21 485 -21 400 0 470 2 562 18 388 69 665
259 824 565 82 159 120 301 135 507 28 366 -58 690 -246 925 -176 219 -471
365 -807 399 -167 17 -893 14 -933 -4z m897 -375 c174 -28 304 -92 421 -210
70 -70 95 -103 128 -171 75 -155 104 -332 89 -541 -9 -130 -37 -239 -89 -347
-54 -111 -177 -238 -284 -293 -160 -82 -253 -98 -562 -98 l-233 0 0 835 0 835
233 0 c127 0 261 -5 297 -10z"/>
<path d="M6583 2471 c-26 -12 -48 -32 -59 -53 -26 -50 -784 -2198 -790 -2238
-12 -87 44 -120 201 -120 120 1 180 16 205 50 8 12 58 146 110 298 l95 277
425 0 425 0 96 -278 c62 -180 104 -286 119 -302 32 -34 78 -45 195 -45 169 0
212 25 203 118 -6 48 -756 2183 -786 2236 -38 65 -57 71 -235 74 -143 2 -167
0 -204 -17z m241 -591 c24 -96 92 -320 150 -496 58 -177 106 -327 106 -333 0
-8 -90 -11 -310 -11 -241 0 -310 3 -310 13 0 6 49 156 109 332 60 176 128 397
151 490 48 193 51 204 56 190 2 -5 23 -89 48 -185z"/>
<path d="M8213 2476 c-18 -8 -42 -30 -53 -48 -20 -33 -20 -48 -20 -1151 0
-1253 -5 -1171 71 -1201 46 -19 222 -22 282 -5 73 20 71 12 77 479 l5 415 214
0 214 0 222 -419 c127 -240 234 -429 249 -442 41 -36 97 -46 237 -42 111 3
131 6 156 24 22 16 29 31 31 63 3 38 -17 78 -219 449 -122 224 -235 427 -251
451 -16 24 -28 44 -26 46 2 1 28 15 58 31 113 60 230 196 284 330 65 159 74
397 22 559 -47 147 -132 264 -250 343 -83 56 -156 86 -261 109 -104 23 -995
30 -1042 9z m859 -377 c158 -34 247 -122 278 -274 38 -186 -46 -369 -203 -441
l-62 -29 -255 0 -255 0 -3 378 -2 377 224 0 c130 0 247 -5 278 -11z"/>
<path d="M10353 2475 c-17 -7 -40 -26 -50 -41 -17 -27 -18 -83 -21 -1140 -3
-1202 -4 -1167 51 -1208 25 -18 45 -21 151 -24 138 -4 182 7 213 54 17 27 18
80 18 1159 0 1079 -1 1132 -18 1159 -10 15 -34 34 -52 42 -46 19 -248 19 -292
-1z"/>
<path d="M11895 2470 c-23 -11 -48 -32 -57 -47 -9 -16 -190 -521 -403 -1123
-266 -752 -387 -1107 -388 -1137 -1 -81 44 -103 205 -103 134 0 186 18 214 72
9 18 56 150 104 293 l87 260 420 3 c329 2 423 -1 430 -10 6 -7 50 -132 98
-278 115 -345 110 -340 322 -340 153 0 193 22 193 107 0 53 -773 2239 -803
2272 -40 43 -76 51 -234 51 -128 0 -154 -3 -188 -20z m239 -585 c25 -99 95
-328 156 -510 60 -181 110 -331 110 -332 0 -2 -142 -3 -315 -3 -173 0 -315 3
-315 8 0 4 50 156 110 337 61 182 127 393 146 470 53 211 55 217 59 213 2 -2
24 -84 49 -183z"/>
<path d="M13520 2472 c-75 -37 -70 44 -70 -1197 0 -1241 -5 -1160 70 -1197 45
-23 243 -25 294 -4 68 29 66 9 66 533 l0 473 560 0 560 0 0 -457 c0 -416 2
-461 18 -493 27 -56 68 -70 200 -70 127 0 170 12 199 56 17 27 18 80 18 1159
0 1079 -1 1132 -18 1159 -29 44 -72 56 -199 56 -132 0 -173 -14 -200 -70 -16
-32 -18 -77 -18 -498 l0 -462 -557 2 -558 3 -5 481 c-5 528 -2 503 -67 531
-50 20 -249 18 -293 -5z"/>
<path d="M17459 2445 c-61 -33 -59 12 -58 -1193 0 -823 3 -1106 12 -1131 7
-19 25 -44 40 -55 28 -21 36 -21 688 -24 719 -3 708 -3 746 54 14 22 18 48 18
124 0 118 -7 143 -48 172 l-32 23 -492 3 -493 3 0 324 0 324 368 3 c393 3 396
4 430 55 25 40 25 227 -1 267 -36 54 -54 56 -442 56 l-355 0 0 320 0 320 460
0 c506 0 504 0 535 60 21 40 21 210 0 250 -32 62 -12 60 -712 60 -533 -1 -642
-3 -664 -15z"/>
<path d="M19340 2447 c-14 -7 -33 -28 -43 -47 -16 -33 -17 -86 -14 -845 3
-803 3 -811 25 -895 94 -355 366 -587 756 -645 402 -59 782 68 980 329 71 94
122 198 154 315 l26 96 1 811 c0 884 2 849 -57 880 -35 18 -275 20 -313 2 -62
-28 -60 5 -65 -873 -5 -796 -5 -800 -27 -859 -32 -82 -55 -117 -123 -179 -69
-64 -118 -90 -224 -117 -259 -66 -542 34 -639 226 -64 127 -61 82 -67 957 l-5
799 -33 29 -32 29 -138 0 c-89 0 -146 -5 -162 -13z"/>
<path d="M15972 1204 c-40 -27 -52 -66 -52 -164 0 -57 5 -104 15 -126 26 -63
34 -64 500 -64 447 0 453 1 489 52 22 30 23 226 2 267 -26 50 -35 51 -499 51
-376 0 -435 -2 -455 -16z"/>
</g>
</svg>
